<svg width="256" height="256" viewBox="0 0 256 256" fill="none" xmlns="http://www.w3.org/2000/svg" role="img" aria-label="LocalPDF Studio logo">
  <defs>
    <linearGradient id="frame" x1="34" y1="24" x2="220" y2="232" gradientUnits="userSpaceOnUse">
      <stop offset="0" stop-color="#2A2925"/>
      <stop offset="1" stop-color="#11110F"/>
    </linearGradient>
    <linearGradient id="paper" x1="76" y1="56" x2="174" y2="198" gradientUnits="userSpaceOnUse">
      <stop offset="0" stop-color="#FFFDF8"/>
      <stop offset="1" stop-color="#E8E6DC"/>
    </linearGradient>
    <linearGradient id="circuit" x1="78" y1="85" x2="182" y2="171" gradientUnits="userSpaceOnUse">
      <stop offset="0" stop-color="#6A9BCC"/>
      <stop offset="0.56" stop-color="#D97757"/>
      <stop offset="1" stop-color="#788C5D"/>
    </linearGradient>
    <radialGradient id="glow" cx="0" cy="0" r="1" gradientUnits="userSpaceOnUse" gradientTransform="translate(128 128) rotate(90) scale(92)">
      <stop offset="0" stop-color="#D97757" stop-opacity="0.36"/>
      <stop offset="0.62" stop-color="#6A9BCC" stop-opacity="0.14"/>
      <stop offset="1" stop-color="#141413" stop-opacity="0"/>
    </radialGradient>
    <filter id="shadow" x="10" y="10" width="236" height="236" filterUnits="userSpaceOnUse" color-interpolation-filters="sRGB">
      <feDropShadow dx="0" dy="18" stdDeviation="18" flood-color="#000000" flood-opacity="0.34"/>
    </filter>
  </defs>

  <rect width="256" height="256" rx="56" fill="url(#frame)"/>
  <rect x="18" y="18" width="220" height="220" rx="46" fill="url(#glow)"/>
  <path d="M54 73C54 58.088 66.088 46 81 46H154L202 94V183C202 197.912 189.912 210 175 210H81C66.088 210 54 197.912 54 183V73Z" fill="url(#paper)" filter="url(#shadow)"/>
  <path d="M154 47V83C154 89.627 159.373 95 166 95H201" fill="#DAD7CB"/>
  <path d="M154 47V83C154 89.627 159.373 95 166 95H201" stroke="#B0AEA5" stroke-width="2" stroke-linejoin="round"/>

  <path d="M82 90H122C129.18 90 135 95.82 135 103V153C135 160.18 140.82 166 148 166H176" stroke="url(#circuit)" stroke-width="10" stroke-linecap="round"/>
  <path d="M82 166H108C115.18 166 121 160.18 121 153V103C121 95.82 126.82 90 134 90H176" stroke="url(#circuit)" stroke-width="10" stroke-linecap="round" opacity="0.55"/>
  <circle cx="82" cy="90" r="12" fill="#141413"/>
  <circle cx="82" cy="90" r="6" fill="#6A9BCC"/>
  <circle cx="176" cy="90" r="12" fill="#141413"/>
  <circle cx="176" cy="90" r="6" fill="#D97757"/>
  <circle cx="82" cy="166" r="12" fill="#141413"/>
  <circle cx="82" cy="166" r="6" fill="#D97757"/>
  <circle cx="176" cy="166" r="12" fill="#141413"/>
  <circle cx="176" cy="166" r="6" fill="#788C5D"/>
  <rect x="106" y="114" width="44" height="28" rx="10" fill="#141413"/>
  <path d="M118 128H138" stroke="#FAF9F5" stroke-width="5" stroke-linecap="round"/>
  <path d="M128 118V138" stroke="#FAF9F5" stroke-width="5" stroke-linecap="round" opacity="0.72"/>

  <path d="M43 210L213 40" stroke="#FAF9F5" stroke-opacity="0.09" stroke-width="2"/>
</svg>
